<?xml version="1.0" encoding="utf-8"?>
<!-- Generator: Adobe Illustrator 27.3.1, SVG Export Plug-In . SVG Version: 6.00 Build 0)  -->
<svg version="1.1" id="Layer_1" xmlns="http://www.w3.org/2000/svg" xmlns:xlink="http://www.w3.org/1999/xlink" x="0px" y="0px"
	 viewBox="0 0 1920 425.26" style="enable-background:new 0 0 1920 425.26;" xml:space="preserve">
<style type="text/css">
	.st0{fill:#FFFFFF;}
</style>
<g>
	<path class="st0" d="M70.92,287.17c-0.74-6.33-0.66-12.67,0.22-19c0.88-6.33,2.28-12.55,4.2-18.67c1.91-6.11,4.16-12.15,6.74-18.12
		c2.58-5.96,5.26-11.74,8.06-17.34c11.05-22.39,24.37-43.33,39.99-62.85c15.61-19.51,33.14-37.08,52.58-52.69
		c9.57-7.66,19.7-14.65,30.38-20.99c10.68-6.33,22.13-10.6,34.35-12.81c2.35-0.44,4.9-0.85,7.62-1.22c2.72-0.37,5.34-0.48,7.84-0.33
		c2.5,0.15,4.93,0.66,7.29,1.55c2.35,0.88,4.42,2.36,6.19,4.42c2.5,2.95,4.27,6.33,5.3,10.16c1.03,3.83,1.77,7.66,2.21,11.49
		c0.59,5.45,0.77,10.9,0.55,16.35c-0.22,5.45-0.63,10.9-1.21,16.35v2.65l0.66-0.66c7.36-10.6,15.21-20.95,23.53-31.04
		c8.32-10.09,17.56-19.11,27.73-27.06c3.39-2.65,6.96-5.04,10.71-7.18c3.76-2.13,7.66-3.83,11.71-5.08
		c4.05-1.25,8.17-1.84,12.37-1.77c4.2,0.08,8.43,0.99,12.7,2.76c3.98,1.62,7.32,3.79,10.05,6.52c2.72,2.73,5.01,5.82,6.85,9.28
		c1.84,3.46,3.24,7.15,4.2,11.05c0.96,3.9,1.66,7.84,2.1,11.82c1.18,11.34,0.77,22.68-1.21,34.02c-1.99,11.34-4.46,22.46-7.4,33.36
		c-3.83,13.99-8.43,27.69-13.81,41.09c-5.38,13.4-11.31,26.59-17.78,39.54c-3.39,6.92-6.92,13.7-10.6,20.33
		c-3.68,6.63-7.51,13.25-11.49,19.88l15.91-5.96c6.04-2.06,12-4.16,17.89-6.3c5.89-2.13,11.93-4.09,18.12-5.85
		c1.77-0.59,3.53-1.1,5.3-1.55c1.77-0.44,3.53-0.88,5.3-1.33c1.03-0.29,1.77-0.44,2.21-0.44s1.03-0.14,1.77-0.44
		c0.88-0.15,1.58-0.04,2.1,0.33c0.51,0.37,0.85,0.88,0.99,1.55c0.15,0.66,0.11,1.33-0.11,1.99c-0.22,0.66-0.77,1.07-1.66,1.21h-0.66
		h-0.22c-0.15,0.15-0.37,0.22-0.66,0.22l-1.33,0.66l-8.62,3.31c-5.3,2.06-10.64,3.94-16.02,5.63c-5.38,1.69-10.71,3.5-16.02,5.41
		c-5.16,1.77-10.2,3.57-15.13,5.41c-4.94,1.84-9.91,3.79-14.91,5.85c-5.74,8.84-11.71,17.45-17.89,25.85
		c-7.51,9.87-15.5,19.37-23.97,28.5c-8.47,9.13-17.86,17.23-28.17,24.3c-3.83,2.5-8.06,4.97-12.7,7.4c-4.64,2.43-9.43,4.2-14.36,5.3
		c-4.94,1.1-9.8,1.29-14.58,0.55c-4.79-0.74-9.17-2.87-13.15-6.41c-2.95-2.65-4.68-5.78-5.19-9.39c-0.52-3.61,0.26-7.11,2.32-10.49
		c1.77-2.95,3.98-5.63,6.63-8.06c2.65-2.43,5.23-4.68,7.73-6.74c6.19-5.01,12.59-9.58,19.22-13.7c6.63-4.12,13.48-8.1,20.55-11.93
		c11.19-6.04,22.53-11.6,34.02-16.68s23.2-9.9,35.13-14.47l4.64-7.29c14.87-24.3,27.61-49.78,38.22-76.44
		c4.71-11.93,8.95-23.97,12.7-36.12c3.76-12.15,6.66-24.56,8.73-37.22c0.59-4.12,1.14-8.47,1.66-13.03
		c0.51-4.56,0.77-9.17,0.77-13.81c0-4.64-0.41-9.17-1.22-13.59c-0.81-4.42-2.1-8.62-3.87-12.59c-2.95-6.19-7.37-10.79-13.26-13.81
		c-5.89-3.02-12.23-3.79-19-2.32c-4.12,0.88-7.99,2.36-11.6,4.42c-3.61,2.06-7.11,4.35-10.49,6.85c-4.42,3.39-8.58,7-12.48,10.82
		c-3.9,3.83-7.7,7.81-11.38,11.93c-6.63,7.37-12.81,14.95-18.56,22.75c-5.74,7.81-11.27,15.83-16.57,24.08
		c-1.77,11.05-3.98,21.95-6.63,32.7c-2.65,10.75-5.52,21.43-8.62,32.03c-3.68,12.52-7.66,24.93-11.93,37.22
		c-4.27,12.3-9.13,24.41-14.58,36.34c-1.62,3.68-3.35,7.33-5.19,10.94c-1.84,3.61-4.01,7.11-6.52,10.49
		c-1.62,2.06-3.35,3.9-5.19,5.52c-1.84,1.62-4.16,2.06-6.96,1.33c-3.39-0.88-5.67-2.76-6.85-5.63c-1.18-2.87-1.77-6.08-1.77-9.61
		c0-3.53,0.37-7.07,1.1-10.6c0.73-3.54,1.4-6.41,1.99-8.62c2.94-12.07,6.88-23.89,11.82-35.46c4.93-11.56,10.2-22.87,15.8-33.91
		c5.6-11.49,11.52-22.72,17.78-33.69c6.26-10.97,12.92-21.76,19.99-32.36c1.18-6.92,2.02-13.81,2.54-20.66
		c0.51-6.85,0.62-13.73,0.33-20.66c-0.15-3.54-0.52-7.18-1.1-10.94c-0.59-3.76-1.84-7.1-3.76-10.05c-0.74-1.18-1.47-2.13-2.21-2.87
		c-0.74-0.74-1.69-1.4-2.87-1.99c-0.15,0-0.66-0.11-1.55-0.33c-0.88-0.22-1.4-0.33-1.55-0.33c-2.21-0.29-4.49-0.29-6.85,0
		c-2.36,0.3-4.64,0.59-6.85,0.88c-12.08,1.92-23.42,5.93-34.02,12.04c-10.6,6.11-20.55,12.92-29.82,20.44
		c-9.28,7.51-18.15,15.46-26.62,23.86c-8.47,8.4-16.46,17.23-23.97,26.51c-7.66,9.28-14.77,18.96-21.32,29.05
		c-6.56,10.09-12.63,20.43-18.23,31.04c-2.8,5.45-5.52,11.01-8.17,16.68c-2.65,5.67-5.01,11.45-7.07,17.34
		c-2.06,5.89-3.76,11.86-5.08,17.89c-1.33,6.04-2.06,12.15-2.21,18.34c0.15-1.18,0.74-1.77,1.77-1.77c1.03,0,1.55,0.59,1.55,1.77
		c0.15,1.62-0.33,2.98-1.44,4.09s-2.47,1.58-4.09,1.44c-1.03,0-1.69-0.66-1.99-1.99L70.92,287.17z M289.41,342.18
		c6.92-7.07,13.4-14.47,19.44-22.2c6.04-7.73,11.78-15.72,17.23-23.97c-0.44,0.3-0.92,0.52-1.44,0.66
		c-0.52,0.15-0.99,0.37-1.44,0.66c-15.17,6.19-30.23,12.85-45.18,19.99c-14.95,7.14-29.13,15.5-42.53,25.07
		c-5.6,3.98-10.6,8.17-15.02,12.59c-1.18,1.18-2.32,2.43-3.42,3.76c-1.1,1.33-1.99,2.72-2.65,4.2c-0.66,1.47-0.92,2.98-0.77,4.53
		c0.15,1.55,0.96,3.05,2.43,4.53c3.39,3.68,7.21,5.6,11.49,5.74c4.27,0.15,8.62-0.37,13.03-1.55c9.72-2.8,18.59-7.33,26.62-13.59
		c8.03-6.26,15.43-12.92,22.2-19.99V342.18z M269.75,167.21l2.65-11.93c-0.74,1.03-1.4,2.03-1.99,2.98
		c-0.59,0.96-1.18,1.95-1.77,2.98c-7.22,11.93-14.03,24.05-20.44,36.34c-6.41,12.3-12.34,24.93-17.78,37.89
		c-2.21,5.16-4.27,10.35-6.19,15.58c-1.92,5.23-3.68,10.49-5.3,15.79c-1.18,3.83-2.17,7.7-2.98,11.6c-0.81,3.9-1.29,7.77-1.44,11.6
		c0,1.62,0.03,2.91,0.11,3.87c0.07,0.96,0.33,2.1,0.77,3.42c0.44,1.47,1.18,2.43,2.21,2.87c-0.44,0-0.22,0.15,0.66,0.44h0.22h0.44
		h0.22l0.22-0.22l0.22-0.22c0.44-0.15,0.73-0.44,0.88-0.88c0.44-0.59,0.77-1.07,0.99-1.44c0.22-0.37,0.48-0.7,0.77-0.99
		c2.21-3.09,4.2-6.37,5.96-9.83c1.77-3.46,3.46-6.96,5.08-10.49c2.35-5.15,4.53-10.31,6.52-15.46c1.99-5.15,3.94-10.38,5.85-15.69
		c4.71-12.96,8.98-25.88,12.81-38.77c3.83-12.89,7.21-26.03,10.16-39.43H269.75z"/>
	<path class="st0" d="M482.71,254.04c1.03-0.59,2.02-0.48,2.98,0.33c0.96,0.81,1.07,1.73,0.33,2.76c-1.62,2.21-3.42,4.2-5.41,5.96
		c-1.99,1.77-4.01,3.53-6.08,5.3c-4.12,3.68-8.25,7.15-12.37,10.38c-3.83,2.95-7.95,6-12.37,9.17c-4.42,3.17-8.99,5.49-13.7,6.96
		c-2.06,0.59-4.16,0.81-6.3,0.66c-2.14-0.14-4.01-1.03-5.63-2.65c-1.62-1.62-2.36-3.42-2.21-5.41c0.14-1.99,0.51-3.94,1.1-5.85
		c0.88-2.94,1.95-6.04,3.2-9.28c1.25-3.24,2.76-6.33,4.53-9.28l-5.96,3.31c-1.77,1.18-3.46,2.36-5.08,3.54
		c-1.62,1.18-3.24,2.36-4.86,3.53c-1.18,1.03-2.35,1.95-3.53,2.76c-1.18,0.81-2.57,1.21-4.2,1.21c-0.74,0-1.4-0.18-1.99-0.55
		c-0.59-0.37-0.96-0.92-1.1-1.66c-0.44-2.65-0.15-5.26,0.88-7.84c1.03-2.58,2.21-4.97,3.53-7.18c1.62-2.8,3.46-5.52,5.52-8.17
		c2.06-2.65,4.34-5.01,6.85-7.07c1.62-1.33,3.53-2.58,5.74-3.76c2.21-1.18,4.27-0.88,6.19,0.88c1.18,1.18,2.21,2.73,3.09,4.64
		c0.88,1.92,1.47,3.9,1.77,5.96h0.66c0.74-0.29,1.44-0.11,2.1,0.55c0.66,0.66,0.85,1.36,0.55,2.1c-0.3,0.88-0.59,1.47-0.88,1.77
		c0,0.59-0.08,1.03-0.22,1.33c-0.74,1.92-1.66,3.72-2.76,5.41c-1.1,1.7-2.1,3.42-2.98,5.19c-1.03,1.92-1.92,3.83-2.65,5.74
		c-0.74,1.92-1.47,3.9-2.21,5.96c-0.3,0.88-0.59,1.81-0.88,2.76c-0.3,0.96-0.52,1.88-0.66,2.76c-0.15,1.92,0.4,3.06,1.66,3.42
		c1.25,0.37,2.69,0.41,4.31,0.11c2.06-0.44,3.98-1.18,5.74-2.21c1.77-1.03,3.46-2.06,5.08-3.09c3.54-2.21,6.96-4.56,10.27-7.07
		c3.31-2.5,6.59-5.08,9.83-7.73c2.94-2.5,5.82-5.15,8.62-7.95c2.8-2.8,5.89-5.15,9.28-7.07L482.71,254.04z M423.28,260.66
		c1.62-1.03,3.35-2.06,5.19-3.09c1.84-1.03,3.72-1.99,5.63-2.87c-0.44-1.47-0.99-2.94-1.66-4.42c-0.66-1.47-1.44-2.65-2.32-3.54
		c-0.3,0-0.52,0.08-0.66,0.22c-0.3,0.3-0.55,0.48-0.77,0.55c-0.22,0.08-0.48,0.19-0.77,0.33c-0.88,0.59-1.73,1.25-2.54,1.99
		c-0.81,0.74-1.58,1.47-2.32,2.21c-3.24,3.24-6.11,6.92-8.62,11.05c-0.59,0.88-1.22,1.84-1.88,2.87c-0.66,1.03-1.22,2.14-1.66,3.31
		c0.74-0.74,1.47-1.44,2.21-2.1c0.74-0.66,1.33-1.14,1.77-1.44c2.65-1.91,5.23-3.61,7.73-5.08H423.28z"/>
	<path class="st0" d="M561.14,254.26c0.88,0,1.36,0.44,1.44,1.33c0.07,0.88-0.26,1.47-0.99,1.77c-5.6,2.21-11.53,3.61-17.78,4.2
		c-6.26,0.59-12.48,1.18-18.67,1.77c-2.06,0.3-4.16,0.37-6.3,0.22c-2.14-0.14-3.79-1.25-4.97-3.31c-0.74-1.62-0.88-3.39-0.44-5.3
		c0.29-0.74,0.66-1.55,1.1-2.43s0.15-0.74-0.88,0.44c-0.74,0.74-1.4,1.55-1.99,2.43c-0.59,0.88-1.25,1.77-1.99,2.65
		c-3.53,4.86-7.03,9.72-10.49,14.58c-3.46,4.86-7.11,9.65-10.94,14.36c-0.59,0.74-1.58,1.95-2.98,3.64c-1.4,1.7-2.91,3.28-4.53,4.75
		c-1.62,1.47-3.28,2.51-4.97,3.09c-1.69,0.59-3.06,0.08-4.09-1.55c-0.73-1.33-0.99-2.98-0.77-4.97c0.22-1.99,0.48-3.72,0.77-5.19
		c0.3-2.5,0.81-4.97,1.55-7.4c0.74-2.43,1.55-4.89,2.43-7.4c0.88-2.5,1.81-4.93,2.76-7.29c0.96-2.35,1.95-4.78,2.98-7.29
		c0.74-1.91,1.47-3.94,2.21-6.08c0.74-2.13,1.77-4.01,3.09-5.63c0.74-0.74,1.55-0.81,2.43-0.22h0.66c0.73,0.3,0.96,0.88,0.66,1.77
		c-1.62,4.86-3.35,9.69-5.19,14.47c-1.84,4.79-3.57,9.61-5.19,14.47c-0.44,1.33-0.85,2.65-1.21,3.98c-0.37,1.33-0.7,2.65-0.99,3.98
		l-0.66,4.64v2.43c3.53-2.94,6.74-6.41,9.61-10.38c2.87-3.98,5.71-7.8,8.51-11.49c1.62-2.21,3.24-4.42,4.86-6.63
		c1.62-2.21,3.24-4.42,4.86-6.63c1.18-1.62,2.5-3.57,3.98-5.85c1.47-2.28,3.24-3.72,5.3-4.31c1.33-0.44,2.54-0.33,3.65,0.33
		s1.88,1.58,2.32,2.76c0.44,1.03,0.51,2.29,0.22,3.75c-0.15,1.03-0.41,2.1-0.77,3.2c-0.37,1.1,0.18,1.88,1.66,2.32
		c0.44,0.15,0.99,0.15,1.66,0c0.66-0.15,1.21-0.22,1.66-0.22l5.96-0.66c5.15-0.59,10.31-1.14,15.46-1.66
		c5.15-0.51,10.31-0.92,15.46-1.21L561.14,254.26z M474.09,292.7h0.22H474.09z"/>
	<path class="st0" d="M624.32,254.04c1.18-0.44,2.02-0.07,2.54,1.1c0.51,1.18,0.26,2.06-0.77,2.65c-8.1,4.57-16.42,8.65-24.96,12.26
		c-8.54,3.61-17.01,7.55-25.41,11.82c2.06,3.83,3.94,7.81,5.63,11.93c1.69,4.12,3.28,8.4,4.75,12.81c1.47,4.27,2.76,8.62,3.87,13.03
		c1.1,4.42,2.02,8.91,2.76,13.48c0.44,3.53,0.7,7.18,0.77,10.93c0.07,3.76-0.7,7.33-2.32,10.71c-1.92,4.12-4.72,6.52-8.4,7.18
		c-3.68,0.66-7.59,0.4-11.71-0.77c-4.12-1.18-8.1-2.98-11.93-5.41c-3.83-2.43-6.85-4.68-9.06-6.74c-3.39-3.24-6.41-6.96-9.06-11.16
		c-2.65-4.2-4.56-8.58-5.74-13.14c-1.18-4.57-1.4-9.21-0.66-13.92c0.74-4.71,2.73-9.13,5.96-13.25c1.77-2.35,3.79-4.38,6.08-6.08
		c2.29-1.69,4.68-3.28,7.18-4.75c2.51-1.33,4.94-2.65,7.29-3.98c2.35-1.33,4.78-2.58,7.29-3.75c-0.44-0.74-1.29-2.43-2.54-5.08
		c-1.25-2.65-2.54-5.45-3.87-8.4c-1.33-2.94-2.58-5.74-3.76-8.39c-1.18-2.65-1.84-4.42-1.99-5.3c-0.44-2.5,0.11-4.56,1.66-6.19
		c1.55-1.62,3.53-2.58,5.96-2.87c2.43-0.29,4.97,0.15,7.62,1.33c2.65,1.18,4.71,3.17,6.19,5.96c0.15,0.3,0.18,0.77,0.11,1.44
		c-0.08,0.66-0.22,1.29-0.44,1.88c-0.22,0.59-0.44,1.07-0.66,1.44c-0.22,0.37-0.41,0.33-0.55-0.11c-0.74-1.91-1.92-3.5-3.53-4.75
		c-1.62-1.25-3.2-2.02-4.75-2.32c-1.55-0.29-2.84-0.07-3.87,0.66c-1.03,0.74-1.33,2.14-0.88,4.2c0.15,0.74,0.66,2.29,1.55,4.64
		c0.88,2.36,1.88,4.9,2.98,7.62c1.1,2.73,2.13,5.27,3.09,7.62c0.96,2.36,1.58,3.83,1.88,4.42l3.98-1.99
		c7.8-3.83,15.61-7.58,23.42-11.27c7.8-3.68,15.83-6.92,24.08-9.72L624.32,254.04z M586.76,337.76
		c-2.06-18.41-7.59-36.08-16.57-53.02c-3.09,1.62-6.15,3.2-9.17,4.75c-3.02,1.55-6,3.28-8.95,5.19c-2.5,1.62-4.71,3.46-6.63,5.52
		c-1.91,2.06-3.46,4.42-4.64,7.07c-1.77,4.42-2.28,8.91-1.55,13.48c0.74,4.56,2.32,8.87,4.75,12.92c2.43,4.05,5.41,7.77,8.95,11.16
		c3.54,3.39,7.22,6.04,11.05,7.95c1.18,0.74,2.65,1.47,4.42,2.21c1.77,0.74,3.61,1.29,5.52,1.66c1.91,0.37,3.76,0.48,5.52,0.33
		c1.77-0.15,3.24-0.81,4.42-1.99c2.06-2.06,3.17-4.83,3.31-8.28c0.15-3.46,0.07-6.52-0.22-9.17L586.76,337.76z"/>
	<path class="st0" d="M707.38,254.04c0.74-0.15,1.29,0.08,1.66,0.66c0.37,0.59,0.26,1.18-0.33,1.77c-2.21,2.21-4.6,4.01-7.18,5.41
		c-2.58,1.4-5.34,2.69-8.28,3.87c-3.24,1.33-6.44,2.58-9.61,3.76c-3.17,1.18-6.44,2.29-9.83,3.31c-1.18,0.3-2.51,0.7-3.98,1.22
		c-1.47,0.52-2.95,0.88-4.42,1.1c-1.47,0.22-2.91,0.19-4.31-0.11c-1.4-0.29-2.54-1.03-3.42-2.21c-0.88-1.18-1.4-2.39-1.55-3.64
		c-0.15-1.25-0.08-2.54,0.22-3.87c0.15-1.33,0.29-2.61,0.44-3.87c0.15-1.25,0.37-2.46,0.66-3.65c-0.74,0.59-1.36,1.22-1.88,1.88
		c-0.52,0.66-1.07,1.36-1.66,2.1c-1.18,1.18-2.25,2.36-3.2,3.54c-0.96,1.18-1.95,2.36-2.98,3.53c-4.12,4.42-8.17,9.13-12.15,14.14
		c-4.42,5.01-8.54,10.02-12.37,15.02c-1.62,2.06-3.35,4.05-5.19,5.96c-1.84,1.92-3.94,3.46-6.3,4.64c-1.33,0.59-2.58,0.44-3.76-0.44
		c-1.18-1.03-1.88-2.21-2.1-3.54c-0.22-1.33-0.15-2.72,0.22-4.2c0.37-1.47,0.88-2.91,1.55-4.31c0.66-1.4,1.21-2.69,1.66-3.87
		l5.96-14.58c2.51-6.48,5.01-12.89,7.51-19.22c2.5-6.33,5.01-12.74,7.51-19.22c5.15-12.96,10.38-25.85,15.69-38.66
		c5.3-12.81,10.97-25.55,17.01-38.22c2.5-5.15,5.04-10.23,7.62-15.24c2.58-5.01,5.34-9.87,8.28-14.58c1.77-2.94,3.76-5.93,5.96-8.95
		c2.21-3.02,4.78-5.48,7.73-7.4c1.47-0.88,2.98-1.4,4.53-1.55c1.55-0.15,2.83,0.66,3.87,2.43c1.03,1.62,1.51,3.31,1.44,5.08
		c-0.08,1.77-0.37,3.53-0.88,5.3c-0.52,1.77-1.25,3.5-2.21,5.19c-0.96,1.69-1.81,3.28-2.54,4.75c-3.39,6.48-6.67,12.89-9.83,19.22
		c-3.17,6.33-6.44,12.74-9.83,19.22c-3.83,7.51-7.73,14.99-11.71,22.42c-3.98,7.44-8.1,14.91-12.37,22.42
		c-3.09,5.3-6.3,10.57-9.61,15.8c-3.31,5.23-7.03,10.2-11.16,14.91l-7.95,19.88l-6.63,17.89c-0.29,0.59-0.96,2.06-1.99,4.42
		c-1.03,2.36-1.91,4.57-2.65,6.63c1.77-1.62,3.35-3.35,4.75-5.19c1.4-1.84,2.84-3.65,4.31-5.41c4.12-5.15,8.47-10.38,13.03-15.68
		c2.21-2.5,4.42-5.04,6.63-7.62c2.21-2.58,4.49-5.12,6.85-7.62c1.91-2.06,3.9-4.01,5.96-5.85c2.06-1.84,4.56-2.69,7.51-2.54
		c1.18,0,2.02,0.41,2.54,1.21c0.51,0.81,0.7,1.81,0.55,2.98l-1.99,11.27c-0.15,0.59-0.3,1.33-0.44,2.21
		c-0.15,0.88,0.15,1.47,0.88,1.77c0.29,0.15,0.77,0.11,1.44-0.11c0.66-0.22,1.14-0.4,1.44-0.55c2.21-0.59,4.42-1.25,6.63-1.99
		c2.21-0.74,4.42-1.47,6.63-2.21c4.71-1.62,9.31-3.46,13.81-5.52C698.06,257.28,702.66,255.51,707.38,254.04z M641.77,225.98
		l-0.66,1.33L641.77,225.98c5.6-9.28,10.86-18.59,15.8-27.95c4.93-9.35,9.83-18.81,14.69-28.39c2.21-4.27,4.42-8.62,6.63-13.03
		c2.21-4.42,4.42-8.76,6.63-13.03l5.3-10.6c0.88-1.62,1.91-3.5,3.09-5.63c1.18-2.13,1.55-4.23,1.1-6.3l-0.66,0.66
		c-0.44,0.3-1.03,0.81-1.77,1.55c-0.74,0.74-1.4,1.4-1.99,1.99c-1.92,2.06-3.61,4.27-5.08,6.63c-1.47,2.36-2.95,4.79-4.42,7.29
		c-7.95,13.85-15.06,28.09-21.32,42.75c-6.26,14.66-12.41,29.35-18.45,44.07H641.77z"/>
	<path class="st0" d="M776.74,254.04c1.03-0.59,2.02-0.48,2.98,0.33c0.96,0.81,1.07,1.73,0.33,2.76c-1.62,2.21-3.42,4.2-5.41,5.96
		c-1.99,1.77-4.01,3.53-6.08,5.3c-4.12,3.68-8.25,7.15-12.37,10.38c-3.83,2.95-7.95,6-12.37,9.17c-4.42,3.17-8.99,5.49-13.7,6.96
		c-2.06,0.59-4.16,0.81-6.3,0.66c-2.14-0.14-4.01-1.03-5.63-2.65c-1.62-1.62-2.36-3.42-2.21-5.41c0.14-1.99,0.51-3.94,1.1-5.85
		c0.88-2.94,1.95-6.04,3.2-9.28c1.25-3.24,2.76-6.33,4.53-9.28l-5.96,3.31c-1.77,1.18-3.46,2.36-5.08,3.54
		c-1.62,1.18-3.24,2.36-4.86,3.53c-1.18,1.03-2.35,1.95-3.53,2.76c-1.18,0.81-2.57,1.21-4.2,1.21c-0.74,0-1.4-0.18-1.99-0.55
		c-0.59-0.37-0.96-0.92-1.1-1.66c-0.44-2.65-0.15-5.26,0.88-7.84c1.03-2.58,2.21-4.97,3.53-7.18c1.62-2.8,3.46-5.52,5.52-8.17
		c2.06-2.65,4.34-5.01,6.85-7.07c1.62-1.33,3.53-2.58,5.74-3.76c2.21-1.18,4.27-0.88,6.19,0.88c1.18,1.18,2.21,2.73,3.09,4.64
		c0.88,1.92,1.47,3.9,1.77,5.96h0.66c0.74-0.29,1.44-0.11,2.1,0.55c0.66,0.66,0.85,1.36,0.55,2.1c-0.3,0.88-0.59,1.47-0.88,1.77
		c0,0.59-0.08,1.03-0.22,1.33c-0.74,1.92-1.66,3.72-2.76,5.41c-1.1,1.7-2.1,3.42-2.98,5.19c-1.03,1.92-1.92,3.83-2.65,5.74
		c-0.74,1.92-1.47,3.9-2.21,5.96c-0.3,0.88-0.59,1.81-0.88,2.76c-0.3,0.96-0.52,1.88-0.66,2.76c-0.15,1.92,0.4,3.06,1.66,3.42
		c1.25,0.37,2.69,0.41,4.31,0.11c2.06-0.44,3.98-1.18,5.74-2.21c1.77-1.03,3.46-2.06,5.08-3.09c3.54-2.21,6.96-4.56,10.27-7.07
		c3.31-2.5,6.59-5.08,9.83-7.73c2.94-2.5,5.82-5.15,8.62-7.95c2.8-2.8,5.89-5.15,9.28-7.07L776.74,254.04z M717.32,260.66
		c1.62-1.03,3.35-2.06,5.19-3.09c1.84-1.03,3.72-1.99,5.63-2.87c-0.44-1.47-0.99-2.94-1.66-4.42c-0.66-1.47-1.44-2.65-2.32-3.54
		c-0.3,0-0.52,0.08-0.66,0.22c-0.3,0.3-0.55,0.48-0.77,0.55c-0.22,0.08-0.48,0.19-0.77,0.33c-0.88,0.59-1.73,1.25-2.54,1.99
		c-0.81,0.74-1.58,1.47-2.32,2.21c-3.24,3.24-6.11,6.92-8.62,11.05c-0.59,0.88-1.22,1.84-1.88,2.87c-0.66,1.03-1.22,2.14-1.66,3.31
		c0.74-0.74,1.47-1.44,2.21-2.1c0.74-0.66,1.33-1.14,1.77-1.44c2.65-1.91,5.23-3.61,7.73-5.08H717.32z"/>
	<path class="st0" d="M867.76,255.14c0.74,0.3,1.21,0.81,1.44,1.55c0.22,0.74-0.04,1.33-0.77,1.77c-0.44,0.74-1.07,1.36-1.88,1.88
		c-0.81,0.52-1.51,0.92-2.1,1.21c-1.62,0.88-3.31,1.66-5.08,2.32c-1.77,0.66-3.53,1.36-5.3,2.1c-4.12,1.62-8.28,3.13-12.48,4.53
		c-4.2,1.4-8.43,2.54-12.7,3.42c-3.09,0.74-6.52,1.25-10.27,1.55c-3.76,0.3-7.11-0.59-10.05-2.65c-2.51-1.77-3.57-4.01-3.2-6.74
		c0.37-2.72,0.92-5.34,1.66-7.84l1.99-6.63c0.29-0.88,0.55-1.58,0.77-2.1c0.22-0.51-0.11-0.77-0.99-0.77
		c-1.33,0.15-2.8,0.92-4.42,2.32c-1.62,1.4-2.95,2.54-3.98,3.42c-5.6,4.57-10.57,9.72-14.91,15.46
		c-4.35,5.74-8.51,11.64-12.48,17.67c-1.03,1.62-2.28,2.06-3.76,1.33c-1.47-0.74-2.06-1.99-1.77-3.76
		c0.88-5.3,2.06-10.53,3.53-15.69c1.47-5.15,3.24-10.23,5.3-15.24c1.03-2.5,2.13-4.97,3.31-7.4c1.18-2.43,2.43-4.82,3.76-7.18
		c1.03-1.91,2.17-4.01,3.42-6.3c1.25-2.28,2.91-3.87,4.97-4.75c0.74-0.29,1.44-0.14,2.1,0.44c0.66,0.59,0.85,1.25,0.55,1.99
		c-0.3,2.06-1.1,4.09-2.43,6.08s-2.51,3.87-3.53,5.63c-2.51,4.86-4.72,9.58-6.63,14.14c-1.77,4.27-3.31,8.84-4.64,13.7
		c3.09-4.27,6.37-8.39,9.83-12.37c3.46-3.98,7.32-7.58,11.6-10.83c0.88-0.74,1.91-1.51,3.09-2.32c1.18-0.81,2.43-1.51,3.76-2.1
		c1.33-0.59,2.65-0.96,3.98-1.1c1.33-0.15,2.65,0.15,3.98,0.88c1.18,0.74,1.99,1.66,2.43,2.76c0.44,1.1,0.59,2.32,0.44,3.65
		c-0.3,2.06-0.77,4.09-1.44,6.08c-0.66,1.99-1.29,4.01-1.88,6.08c-0.3,1.18-0.63,2.36-0.99,3.53c-0.37,1.18,0.03,2.14,1.21,2.87
		c0.59,0.3,1.22,0.48,1.88,0.55c0.66,0.08,1.29,0.11,1.88,0.11c2.06,0.15,4.05,0.08,5.96-0.22c1.91-0.29,3.83-0.66,5.74-1.1
		c4.42-1.03,8.76-2.28,13.03-3.76c4.27-1.47,8.54-3.02,12.81-4.64c0.73-0.29,1.69-0.74,2.87-1.33c1.18-0.59,2.46-1.18,3.87-1.77
		c1.4-0.59,2.76-1.03,4.09-1.33c1.33-0.29,2.43-0.22,3.31,0.22L867.76,255.14z"/>
	<path class="st0" d="M1326.83,306.17c-2.36,8.54-4.57,17.52-6.63,26.95c-1.03,4.42-1.92,8.87-2.65,13.37
		c-0.74,4.49-1.1,9.02-1.1,13.59c0,2.06,0.22,4.31,0.66,6.74c0.44,2.43,1.18,4.71,2.21,6.85c1.03,2.13,2.39,3.98,4.09,5.52
		c1.69,1.55,3.79,2.32,6.3,2.32c1.62,0,2.43,0.77,2.43,2.32c0,1.55-0.81,2.32-2.43,2.32c-2.8,0-5.3-0.66-7.51-1.99
		c-2.21-1.33-4.12-3.02-5.74-5.08c-1.62-2.06-2.95-4.35-3.98-6.85c-1.03-2.51-1.77-5.01-2.21-7.51c-0.74-4.12-0.96-8.17-0.66-12.15
		c0.29-3.98,0.81-8.03,1.55-12.15c1.03-5.16,2.1-10.2,3.2-15.13c1.1-4.94,2.32-9.91,3.65-14.91c2.5-9.72,5.34-19.37,8.5-28.94
		c3.17-9.57,6.44-19.07,9.83-28.5c3.54-9.72,7.21-19.29,11.05-28.72c3.83-9.42,7.73-18.85,11.71-28.28
		c1.91-4.71,3.83-9.35,5.74-13.92c1.91-4.56,3.83-9.2,5.74-13.92c1.62-3.83,3.05-7.69,4.31-11.6c1.25-3.9,2.24-7.92,2.98-12.04
		c-3.09,1.62-5.85,3.68-8.28,6.19c-2.43,2.51-4.75,5.01-6.96,7.51c-3.09,3.53-6.11,7.11-9.06,10.71c-2.95,3.61-5.89,7.26-8.84,10.94
		c-10.75,13.7-20.88,27.73-30.38,42.09c-9.5,14.36-18.89,28.91-28.17,43.63c-4.57,7.37-9.06,14.66-13.48,21.87
		c-4.42,7.22-8.91,14.51-13.48,21.87c-2.21,3.53-4.42,7.1-6.63,10.71c-2.21,3.61-4.57,7.1-7.07,10.49c-1.92,2.5-4.27,4.71-7.07,6.63
		c-2.8,1.91-5.89,2.21-9.28,0.88c-2.06-0.74-2.87-2.14-2.43-4.2c2.21-10.46,4.86-20.54,7.95-30.27
		c6.63-20.47,14.58-40.24,23.86-59.32c9.28-19.07,19-38.03,29.16-56.89c5.15-9.57,10.31-19.03,15.46-28.39
		c5.15-9.35,10.23-18.81,15.24-28.39c2.5-4.71,4.97-9.46,7.4-14.25c2.43-4.78,4.82-9.61,7.18-14.47c2.5-5.15,4.89-10.35,7.18-15.57
		c2.28-5.23,4.16-10.64,5.63-16.24c0.29-1.03,0.73-2.69,1.33-4.97c0.59-2.28,0.29-3.79-0.88-4.53c-0.74-0.44-2.06-0.29-3.98,0.44
		c-1.92,0.74-3.24,1.25-3.98,1.55c-2.51,1.03-4.83,2.29-6.96,3.76c-2.14,1.47-4.24,3.02-6.3,4.64c-4.27,3.39-8.32,6.85-12.15,10.38
		c-3.83,3.53-7.66,7.22-11.49,11.05c-7.66,7.66-14.95,15.57-21.87,23.75c-6.92,8.17-13.62,16.61-20.1,25.3
		c-13.4,18.12-25.77,36.78-37.11,56c-11.34,19.22-22.39,38.7-33.14,58.43c-5.6,10.46-11.23,20.84-16.9,31.15
		c-5.67,10.31-11.45,20.62-17.34,30.93c-2.95,5.01-5.85,9.98-8.73,14.91c-2.87,4.93-5.78,9.9-8.73,14.91
		c-0.88,1.62-2.03,3.24-3.42,4.86c-1.4,1.62-2.91,2.98-4.53,4.09c-1.62,1.1-3.39,1.77-5.3,1.99c-1.92,0.22-3.83-0.41-5.74-1.88
		c-1.62-1.03-2.76-2.36-3.42-3.98c-0.66-1.62-1.03-3.35-1.1-5.19c-0.08-1.84,0-3.65,0.22-5.41c0.22-1.77,0.55-3.46,0.99-5.08
		c1.33-5.6,2.8-11.16,4.42-16.68c1.62-5.52,3.31-11.08,5.08-16.68c3.39-10.9,7.07-21.65,11.05-32.25
		c3.98-10.6,8.03-21.21,12.15-31.81c4.12-10.6,8.17-21.21,12.15-31.81s7.73-21.35,11.27-32.25c1.77-5.3,3.46-10.6,5.08-15.91
		c1.62-5.3,3.17-10.6,4.64-15.91c1.62-5.89,3.09-11.82,4.42-17.78c1.33-5.96,1.69-12.04,1.1-18.23c-0.3-4.71-1.47-9.24-3.54-13.59
		c-2.06-4.34-5.16-7.77-9.28-10.27c-2.36-1.33-4.9-2.28-7.62-2.87c-2.73-0.59-5.45-0.85-8.17-0.77c-2.73,0.08-5.49,0.33-8.28,0.77
		c-2.8,0.44-5.45,0.96-7.95,1.55c-10.31,2.51-20.18,6.33-29.6,11.49c-9.43,5.16-18.56,10.68-27.39,16.57
		c-16.94,11.49-32.55,24.38-46.83,38.66c-14.29,14.29-27.1,29.9-38.44,46.83c-5.89,8.84-11.42,18.08-16.57,27.73
		c-5.16,9.65-8.69,19.77-10.6,30.38c-1.92,10.6-1.33,20.95,1.77,31.04c3.09,10.09,8.39,19.04,15.91,26.84
		c0.59,0.59,0.62,1.14,0.11,1.66c-0.52,0.51-1.07,0.48-1.66-0.11c-7.51-6.33-13.25-14.06-17.23-23.2
		c-4.27-9.87-5.96-19.92-5.08-30.16c0.88-10.23,3.39-20.21,7.51-29.93c4.12-9.87,9.06-19.36,14.8-28.5
		c5.74-9.13,11.85-17.89,18.34-26.29c12.52-16.49,26.43-31.55,41.75-45.18c15.32-13.62,31.88-25.66,49.71-36.12
		c4.56-2.65,9.28-5.23,14.14-7.73c4.86-2.5,9.83-4.71,14.91-6.63c5.08-1.91,10.27-3.46,15.58-4.64c5.3-1.18,10.68-1.69,16.13-1.55
		c4.86,0.15,9.5,1.1,13.92,2.87c4.42,1.77,8.17,4.57,11.27,8.4c2.94,3.68,5.12,7.73,6.52,12.15c1.4,4.42,2.17,8.99,2.32,13.7
		c0.14,5.89-0.44,11.75-1.77,17.56c-1.33,5.82-2.8,11.53-4.42,17.12c-1.62,5.89-3.28,11.71-4.97,17.45
		c-1.7,5.74-3.5,11.49-5.41,17.23c-3.68,11.05-7.55,21.98-11.6,32.81c-4.05,10.83-8.14,21.69-12.26,32.58
		c-4.27,11.05-8.43,22.13-12.48,33.25c-4.05,11.12-7.77,22.42-11.16,33.91c-0.88,2.94-1.77,5.82-2.65,8.62
		c-0.88,2.8-1.69,5.67-2.43,8.62c-0.74,2.35-1.44,4.71-2.1,7.07c-0.66,2.35-1.07,4.78-1.21,7.29c0,0.88,0.07,1.88,0.22,2.98
		c0.14,1.1,0.44,1.99,0.88,2.65c0.44,0.66,1.07,1.07,1.88,1.22c0.81,0.14,1.8-0.3,2.98-1.33c1.91-1.62,3.53-3.68,4.86-6.19
		c1.33-2.51,2.57-4.79,3.75-6.85c12.67-21.06,24.71-42.34,36.12-63.84c11.41-21.5,23.31-42.86,35.68-64.07
		c11.19-19.29,23.01-38.11,35.46-56.44c12.44-18.34,26.25-35.75,41.42-52.25c3.83-4.27,7.73-8.43,11.71-12.48
		c3.98-4.05,8.1-7.99,12.37-11.82c3.83-3.53,7.8-7.07,11.93-10.6c4.12-3.53,8.54-6.48,13.25-8.84c1.62-0.73,3.61-1.51,5.96-2.32
		c2.35-0.81,4.64-1.22,6.85-1.22c2.21,0,4.16,0.52,5.85,1.55c1.69,1.03,2.61,2.95,2.76,5.74c0.15,2.8-0.19,5.67-0.99,8.62
		c-0.81,2.95-1.58,5.67-2.32,8.17c-0.74,2.51-1.58,4.97-2.54,7.4c-0.96,2.43-2.03,4.9-3.2,7.4c-5.89,13.4-12.26,26.62-19.11,39.65
		s-13.77,26-20.77,38.88c-7,12.89-13.99,25.77-20.99,38.66c-7,12.89-13.59,25.96-19.77,39.21s-11.9,26.73-17.12,40.43
		c-5.23,13.7-9.54,27.76-12.92,42.2c1.47-0.44,2.8-1.36,3.98-2.76c1.18-1.4,2.13-2.69,2.87-3.87c1.33-2.06,2.61-4.05,3.87-5.96
		c1.25-1.92,2.46-3.9,3.65-5.96c2.5-3.98,4.97-7.95,7.4-11.93c2.43-3.98,4.9-7.95,7.4-11.93c8.84-14.28,17.64-28.46,26.4-42.53
		c8.76-14.06,18-28.02,27.73-41.86c4.71-6.92,9.57-13.66,14.58-20.21c5.01-6.55,10.16-13.07,15.46-19.55
		c2.21-2.65,4.49-5.48,6.85-8.51c2.35-3.02,4.89-5.89,7.62-8.62c2.72-2.72,5.63-5.12,8.73-7.18c3.09-2.06,6.48-3.46,10.16-4.2
		c1.03-0.29,2.06-0.11,3.09,0.55c1.03,0.66,1.47,1.58,1.33,2.76c-0.44,5.16-1.36,10.27-2.76,15.35c-1.4,5.08-3.09,10.05-5.08,14.91
		c-1.99,4.86-4.09,9.72-6.3,14.58c-2.21,4.86-4.27,9.65-6.19,14.36c-7.37,17.82-14.4,35.61-21.1,53.35
		c-6.7,17.75-12.63,35.9-17.78,54.46H1326.83z"/>
	<path class="st0" d="M1456.72,254.04c1.03-0.59,2.02-0.48,2.98,0.33c0.96,0.81,1.07,1.73,0.33,2.76c-1.62,2.21-3.42,4.2-5.41,5.96
		c-1.99,1.77-4.01,3.53-6.08,5.3c-4.12,3.68-8.25,7.15-12.37,10.38c-3.83,2.95-7.95,6-12.37,9.17c-4.42,3.17-8.99,5.49-13.7,6.96
		c-2.06,0.59-4.16,0.81-6.3,0.66c-2.14-0.14-4.01-1.03-5.63-2.65c-1.62-1.62-2.36-3.42-2.21-5.41c0.15-1.99,0.51-3.94,1.1-5.85
		c0.88-2.94,1.95-6.04,3.2-9.28c1.25-3.24,2.76-6.33,4.53-9.28l-5.96,3.31c-1.77,1.18-3.46,2.36-5.08,3.54
		c-1.62,1.18-3.24,2.36-4.86,3.53c-1.18,1.03-2.35,1.95-3.53,2.76c-1.18,0.81-2.58,1.21-4.2,1.21c-0.73,0-1.4-0.18-1.99-0.55
		c-0.59-0.37-0.96-0.92-1.11-1.66c-0.44-2.65-0.14-5.26,0.88-7.84c1.03-2.58,2.21-4.97,3.54-7.18c1.62-2.8,3.46-5.52,5.52-8.17
		c2.06-2.65,4.34-5.01,6.85-7.07c1.62-1.33,3.54-2.58,5.74-3.76c2.21-1.18,4.27-0.88,6.19,0.88c1.18,1.18,2.21,2.73,3.09,4.64
		c0.88,1.92,1.47,3.9,1.77,5.96h0.66c0.73-0.29,1.44-0.11,2.1,0.55c0.66,0.66,0.85,1.36,0.55,2.1c-0.3,0.88-0.59,1.47-0.88,1.77
		c0,0.59-0.08,1.03-0.22,1.33c-0.74,1.92-1.66,3.72-2.76,5.41c-1.1,1.7-2.1,3.42-2.98,5.19c-1.03,1.92-1.92,3.83-2.65,5.74
		c-0.74,1.92-1.47,3.9-2.21,5.96c-0.3,0.88-0.59,1.81-0.88,2.76c-0.3,0.96-0.52,1.88-0.66,2.76c-0.15,1.92,0.4,3.06,1.66,3.42
		c1.25,0.37,2.69,0.41,4.31,0.11c2.06-0.44,3.98-1.18,5.74-2.21c1.77-1.03,3.46-2.06,5.08-3.09c3.53-2.21,6.96-4.56,10.27-7.07
		c3.31-2.5,6.59-5.08,9.83-7.73c2.94-2.5,5.82-5.15,8.62-7.95c2.8-2.8,5.89-5.15,9.28-7.07L1456.72,254.04z M1397.3,260.66
		c1.62-1.03,3.35-2.06,5.19-3.09c1.84-1.03,3.72-1.99,5.63-2.87c-0.44-1.47-0.99-2.94-1.66-4.42c-0.66-1.47-1.44-2.65-2.32-3.54
		c-0.3,0-0.52,0.08-0.66,0.22c-0.3,0.3-0.55,0.48-0.77,0.55c-0.22,0.08-0.48,0.19-0.77,0.33c-0.88,0.59-1.73,1.25-2.54,1.99
		c-0.81,0.74-1.58,1.47-2.32,2.21c-3.24,3.24-6.11,6.92-8.62,11.05c-0.59,0.88-1.21,1.84-1.88,2.87c-0.66,1.03-1.21,2.14-1.66,3.31
		c0.74-0.74,1.47-1.44,2.21-2.1c0.74-0.66,1.33-1.14,1.77-1.44c2.65-1.91,5.23-3.61,7.73-5.08H1397.3z"/>
	<path class="st0" d="M1548.63,254.48c0.74-0.74,1.51-1.07,2.32-0.99c0.81,0.08,1.47,0.37,1.99,0.88c0.51,0.52,0.81,1.18,0.88,1.99
		c0.07,0.81-0.19,1.58-0.77,2.32c-6.19,7.22-13.48,13.59-21.87,19.11c-8.39,5.52-17.38,9.1-26.95,10.71
		c-5.74,1.03-11.6,1.07-17.56,0.11c-5.96-0.96-11.01-3.72-15.13-8.28c-0.88,1.18-1.73,2.4-2.54,3.65c-0.81,1.25-1.58,2.47-2.32,3.64
		c-3.83,6.04-7.44,12.15-10.83,18.34c-3.39,6.19-6.77,12.37-10.16,18.56c-0.59,1.03-1.51,1.55-2.76,1.55
		c-1.25,0-2.17-0.59-2.76-1.77c-2.06-3.83-2.65-7.88-1.77-12.15c0.88-4.27,1.92-8.4,3.09-12.37c1.92-7.07,4.12-14.14,6.63-21.21
		c1.18-3.68,2.4-7.29,3.64-10.83c1.25-3.53,2.54-7.07,3.87-10.6c-0.59-1.03-0.44-1.99,0.44-2.87l0.66-0.66
		c7.66-21.35,16.27-42.34,25.85-62.96c3.09-6.92,6.3-13.7,9.61-20.32c3.31-6.63,6.88-13.25,10.71-19.88
		c3.54-6.33,7.36-12.67,11.49-19c4.12-6.33,9.13-11.71,15.02-16.13c1.18-0.88,2.39-0.81,3.64,0.22c1.25,1.03,1.73,2.14,1.44,3.31
		c-3.24,10.6-6.7,21.1-10.38,31.48c-3.68,10.38-7.73,20.66-12.15,30.82c-4.71,10.6-9.83,21.03-15.35,31.26
		c-5.52,10.24-11.97,19.92-19.33,29.05c-2.21,2.8-4.49,5.41-6.85,7.84c-2.36,2.43-4.86,4.68-7.51,6.74
		c-1.62,4.27-3.17,8.58-4.64,12.92c-1.47,4.35-2.94,8.65-4.42,12.92c-1.03,2.95-1.99,5.93-2.87,8.95c-0.88,3.02-1.77,6-2.65,8.95
		c-0.59,1.92-1.25,3.98-1.99,6.19c-0.74,2.21-1.25,4.42-1.55,6.63c2.95-5.45,5.96-10.86,9.06-16.24c3.09-5.38,6.33-10.64,9.72-15.8
		c1.62-2.5,3.35-5.19,5.19-8.06c1.84-2.87,3.9-5.6,6.19-8.17c2.28-2.58,4.75-4.82,7.4-6.74c2.65-1.91,5.52-3.24,8.62-3.98
		c1.03-0.29,1.99-0.14,2.87,0.44c0.88,0.59,1.33,1.47,1.33,2.65c-0.15,5.3-1.92,9.61-5.3,12.92c-3.39,3.31-7.22,6-11.49,8.06
		c3.53,2.95,7.84,4.53,12.92,4.75s9.75-0.18,14.03-1.21c8.69-2.06,16.57-5.6,23.64-10.6c7.07-5,13.7-10.6,19.88-16.79
		L1548.63,254.48z M1468.21,240.78l-0.66,1.99c4.27-4.71,8.21-9.75,11.82-15.13c3.61-5.37,7.03-10.86,10.27-16.46
		c7.36-12.96,13.81-26.25,19.33-39.88c5.52-13.62,10.57-27.5,15.13-41.64c-1.62,2.06-3.09,4.12-4.42,6.19
		c-1.33,2.06-2.65,4.12-3.98,6.19c-1.77,2.95-3.5,5.85-5.19,8.73c-1.7,2.87-3.35,5.78-4.97,8.73c-7.22,13.25-13.85,26.7-19.88,40.32
		c-6.04,13.62-11.78,27.43-17.23,41.42L1468.21,240.78z M1486.99,262.43c-1.62,1.03-3.09,2.21-4.42,3.54
		c-1.33,1.33-2.58,2.73-3.76,4.2c1.62-1.03,3.17-2.17,4.64-3.42C1484.93,265.49,1486.11,264.05,1486.99,262.43z"/>
	<path class="st0" d="M1644.28,254.48c0.74-0.44,1.4-0.51,1.99-0.22c0.59,0.3,1.07,0.74,1.44,1.33c0.37,0.59,0.51,1.18,0.44,1.77
		c-0.08,0.59-0.48,1.1-1.21,1.55c-4.27,2.51-8.84,4.57-13.7,6.19c-4.86,1.62-9.72,2.8-14.58,3.53c-4.86,0.74-9.76,0.85-14.69,0.33
		c-4.94-0.51-9.54-2.02-13.81-4.53c-0.88,2.06-1.84,4.05-2.87,5.96c-1.03,1.92-2.14,3.83-3.31,5.74c-0.59,0.88-1.51,2.32-2.76,4.31
		c-1.25,1.99-2.65,3.79-4.2,5.41c-1.55,1.62-3.13,2.76-4.75,3.42c-1.62,0.66-3.09,0.19-4.42-1.44c-1.47-1.77-2.29-4.16-2.43-7.18
		c-0.15-3.02-0.22-5.56-0.22-7.62c0-0.88,0-1.77,0-2.65s0.07-1.77,0.22-2.65c-1.18,1.92-2.43,3.79-3.75,5.63
		c-1.33,1.84-2.65,3.72-3.98,5.63c-0.59,0.88-1.29,1.88-2.1,2.98c-0.81,1.1-1.73,2.06-2.76,2.87c-1.03,0.81-2.1,1.36-3.2,1.66
		c-1.1,0.3-2.24,0.08-3.42-0.66c-1.18-0.73-1.91-1.8-2.21-3.2c-0.29-1.4-0.37-2.94-0.22-4.64c0.15-1.69,0.41-3.35,0.77-4.97
		c0.37-1.62,0.7-2.94,0.99-3.98c1.33-6.63,3.39-12.81,6.19-18.56c0.29-0.74,0.7-1.18,1.21-1.33c0.51-0.15,1.07,0,1.66,0.44
		c0.74,0.44,0.96,1.18,0.66,2.21c-0.59,2.51-1.29,4.9-2.1,7.18c-0.81,2.29-1.51,4.68-2.1,7.18c-0.3,1.18-0.55,2.4-0.77,3.64
		c-0.22,1.25-0.48,2.47-0.77,3.65c-0.15,0.74-0.4,1.99-0.77,3.76c-0.37,1.77-0.26,2.95,0.33,3.53c0.15,0.3,0.48,0.22,0.99-0.22
		c0.51-0.44,1.03-0.99,1.55-1.66c0.51-0.66,0.99-1.36,1.44-2.1c0.44-0.74,0.81-1.25,1.1-1.55l3.98-5.96
		c1.62-2.21,3.13-4.42,4.53-6.63c1.4-2.21,2.83-4.42,4.31-6.63c0.74-1.33,1.73-1.69,2.98-1.1c1.25,0.59,1.73,1.55,1.44,2.87
		c-0.44,2.65-0.81,5.3-1.1,7.95c-0.3,2.65-0.44,5.3-0.44,7.95c0,1.33,0.03,2.69,0.11,4.09c0.07,1.4,0.26,2.69,0.55,3.87
		c0.44,1.62,0.96,2.03,1.55,1.21c0.59-0.81,1.25-1.66,1.99-2.54c4.56-5.6,8.32-11.93,11.27-19c-1.77-1.33-3.31-2.87-4.64-4.64
		c-2.65-3.39-3.98-7.14-3.98-11.27c0-4.12,0.59-8.1,1.77-11.93c0.74-2.06,1.58-4.05,2.54-5.96c0.96-1.91,2.39-3.46,4.31-4.64
		c1.47-0.74,3.05-1.11,4.75-1.11c1.69,0,3.13,0.59,4.31,1.77c1.47,1.33,2.28,2.98,2.43,4.97c0.14,1.99,0.14,3.87,0,5.63
		c-0.3,4.71-0.96,9.35-1.99,13.92c-0.88,3.83-1.99,7.59-3.31,11.27c3.09,1.92,6.48,3.24,10.16,3.98c7.07,1.33,14.28,0.96,21.65-1.1
		c7.36-2.06,14.14-4.78,20.32-8.17L1644.28,254.48z M1587.95,256.69c2.35-6.48,3.83-12.96,4.42-19.44c0-0.74,0.07-1.8,0.22-3.2
		c0.14-1.4,0.11-2.72-0.11-3.98c-0.22-1.25-0.66-2.17-1.33-2.76c-0.66-0.59-1.66-0.37-2.98,0.66c-1.47,1.03-2.54,2.54-3.2,4.53
		s-1.14,3.79-1.44,5.41c-0.88,3.53-1.03,6.89-0.44,10.05c0.59,3.17,2.21,6,4.86,8.5V256.69z"/>
	<path class="st0" d="M1714.97,254.04c1.03-0.59,2.02-0.48,2.98,0.33c0.96,0.81,1.07,1.73,0.33,2.76c-1.62,2.21-3.42,4.2-5.41,5.96
		c-1.99,1.77-4.01,3.53-6.08,5.3c-4.12,3.68-8.25,7.15-12.37,10.38c-3.83,2.95-7.95,6-12.37,9.17c-4.42,3.17-8.99,5.49-13.7,6.96
		c-2.06,0.59-4.16,0.81-6.3,0.66c-2.14-0.14-4.01-1.03-5.63-2.65c-1.62-1.62-2.36-3.42-2.21-5.41c0.15-1.99,0.51-3.94,1.1-5.85
		c0.88-2.94,1.95-6.04,3.2-9.28c1.25-3.24,2.76-6.33,4.53-9.28l-5.96,3.31c-1.77,1.18-3.46,2.36-5.08,3.54
		c-1.62,1.18-3.24,2.36-4.86,3.53c-1.18,1.03-2.35,1.95-3.53,2.76c-1.18,0.81-2.58,1.21-4.2,1.21c-0.73,0-1.4-0.18-1.99-0.55
		c-0.59-0.37-0.96-0.92-1.11-1.66c-0.44-2.65-0.14-5.26,0.88-7.84c1.03-2.58,2.21-4.97,3.54-7.18c1.62-2.8,3.46-5.52,5.52-8.17
		c2.06-2.65,4.34-5.01,6.85-7.07c1.62-1.33,3.54-2.58,5.74-3.76c2.21-1.18,4.27-0.88,6.19,0.88c1.18,1.18,2.21,2.73,3.09,4.64
		c0.88,1.92,1.47,3.9,1.77,5.96h0.66c0.73-0.29,1.44-0.11,2.1,0.55c0.66,0.66,0.85,1.36,0.55,2.1c-0.3,0.88-0.59,1.47-0.88,1.77
		c0,0.59-0.08,1.03-0.22,1.33c-0.74,1.92-1.66,3.72-2.76,5.41c-1.1,1.7-2.1,3.42-2.98,5.19c-1.03,1.92-1.92,3.83-2.65,5.74
		c-0.74,1.92-1.47,3.9-2.21,5.96c-0.3,0.88-0.59,1.81-0.88,2.76c-0.3,0.96-0.52,1.88-0.66,2.76c-0.15,1.92,0.4,3.06,1.66,3.42
		c1.25,0.37,2.69,0.41,4.31,0.11c2.06-0.44,3.98-1.18,5.74-2.21c1.77-1.03,3.46-2.06,5.08-3.09c3.53-2.21,6.96-4.56,10.27-7.07
		c3.31-2.5,6.59-5.08,9.83-7.73c2.94-2.5,5.82-5.15,8.62-7.95c2.8-2.8,5.89-5.15,9.28-7.07L1714.97,254.04z M1655.55,260.66
		c1.62-1.03,3.35-2.06,5.19-3.09c1.84-1.03,3.72-1.99,5.63-2.87c-0.44-1.47-0.99-2.94-1.66-4.42c-0.66-1.47-1.44-2.65-2.32-3.54
		c-0.3,0-0.52,0.08-0.66,0.22c-0.3,0.3-0.55,0.48-0.77,0.55c-0.22,0.08-0.48,0.19-0.77,0.33c-0.88,0.59-1.73,1.25-2.54,1.99
		c-0.81,0.74-1.58,1.47-2.32,2.21c-3.24,3.24-6.11,6.92-8.62,11.05c-0.59,0.88-1.21,1.84-1.88,2.87c-0.66,1.03-1.21,2.14-1.66,3.31
		c0.74-0.74,1.47-1.44,2.21-2.1c0.74-0.66,1.33-1.14,1.77-1.44c2.65-1.91,5.23-3.61,7.73-5.08H1655.55z"/>
	<path class="st0" d="M1805.99,255.14c0.74,0.3,1.21,0.81,1.44,1.55c0.22,0.74-0.04,1.33-0.77,1.77c-0.44,0.74-1.07,1.36-1.88,1.88
		c-0.81,0.52-1.51,0.92-2.1,1.21c-1.62,0.88-3.31,1.66-5.08,2.32c-1.77,0.66-3.54,1.36-5.3,2.1c-4.12,1.62-8.28,3.13-12.48,4.53
		c-4.2,1.4-8.43,2.54-12.7,3.42c-3.09,0.74-6.52,1.25-10.27,1.55c-3.76,0.3-7.11-0.59-10.05-2.65c-2.51-1.77-3.57-4.01-3.2-6.74
		c0.37-2.72,0.92-5.34,1.66-7.84l1.99-6.63c0.29-0.88,0.55-1.58,0.77-2.1c0.22-0.51-0.11-0.77-0.99-0.77
		c-1.33,0.15-2.8,0.92-4.42,2.32c-1.62,1.4-2.95,2.54-3.98,3.42c-5.6,4.57-10.57,9.72-14.91,15.46
		c-4.35,5.74-8.51,11.64-12.48,17.67c-1.03,1.62-2.28,2.06-3.75,1.33c-1.47-0.74-2.06-1.99-1.77-3.76
		c0.88-5.3,2.06-10.53,3.53-15.69c1.47-5.15,3.24-10.23,5.3-15.24c1.03-2.5,2.13-4.97,3.31-7.4c1.18-2.43,2.43-4.82,3.76-7.18
		c1.03-1.91,2.17-4.01,3.42-6.3c1.25-2.28,2.91-3.87,4.97-4.75c0.74-0.29,1.44-0.14,2.1,0.44c0.66,0.59,0.85,1.25,0.55,1.99
		c-0.3,2.06-1.1,4.09-2.43,6.08c-1.33,1.99-2.51,3.87-3.53,5.63c-2.51,4.86-4.71,9.58-6.63,14.14c-1.77,4.27-3.31,8.84-4.64,13.7
		c3.09-4.27,6.37-8.39,9.83-12.37c3.46-3.98,7.33-7.58,11.6-10.83c0.88-0.74,1.91-1.51,3.09-2.32c1.18-0.81,2.43-1.51,3.76-2.1
		c1.33-0.59,2.65-0.96,3.98-1.1c1.33-0.15,2.65,0.15,3.98,0.88c1.18,0.74,1.99,1.66,2.43,2.76c0.44,1.1,0.59,2.32,0.44,3.65
		c-0.3,2.06-0.77,4.09-1.44,6.08c-0.66,1.99-1.29,4.01-1.88,6.08c-0.3,1.18-0.63,2.36-0.99,3.53c-0.37,1.18,0.04,2.14,1.22,2.87
		c0.59,0.3,1.21,0.48,1.88,0.55c0.66,0.08,1.29,0.11,1.88,0.11c2.06,0.15,4.05,0.08,5.96-0.22c1.91-0.29,3.83-0.66,5.74-1.1
		c4.42-1.03,8.76-2.28,13.03-3.76c4.27-1.47,8.54-3.02,12.81-4.64c0.74-0.29,1.69-0.74,2.87-1.33c1.18-0.59,2.46-1.18,3.87-1.77
		c1.4-0.59,2.76-1.03,4.09-1.33c1.33-0.29,2.43-0.22,3.31,0.22L1805.99,255.14z"/>
	<path class="st0" d="M1875.14,254.04c1.03-0.59,2.02-0.48,2.98,0.33c0.96,0.81,1.07,1.73,0.33,2.76c-1.62,2.21-3.42,4.2-5.41,5.96
		c-1.99,1.77-4.01,3.53-6.08,5.3c-4.12,3.68-8.25,7.15-12.37,10.38c-3.83,2.95-7.95,6-12.37,9.17c-4.42,3.17-8.99,5.49-13.7,6.96
		c-2.06,0.59-4.16,0.81-6.3,0.66c-2.14-0.14-4.01-1.03-5.63-2.65c-1.62-1.62-2.36-3.42-2.21-5.41c0.15-1.99,0.51-3.94,1.1-5.85
		c0.88-2.94,1.95-6.04,3.2-9.28c1.25-3.24,2.76-6.33,4.53-9.28l-5.96,3.31c-1.77,1.18-3.46,2.36-5.08,3.54
		c-1.62,1.18-3.24,2.36-4.86,3.53c-1.18,1.03-2.35,1.95-3.53,2.76c-1.18,0.81-2.58,1.21-4.2,1.21c-0.73,0-1.4-0.18-1.99-0.55
		c-0.59-0.37-0.96-0.92-1.11-1.66c-0.44-2.65-0.14-5.26,0.88-7.84c1.03-2.58,2.21-4.97,3.54-7.18c1.62-2.8,3.46-5.52,5.52-8.17
		c2.06-2.65,4.34-5.01,6.85-7.07c1.62-1.33,3.54-2.58,5.74-3.76c2.21-1.18,4.27-0.88,6.19,0.88c1.18,1.18,2.21,2.73,3.09,4.64
		c0.88,1.92,1.47,3.9,1.77,5.96h0.66c0.73-0.29,1.44-0.11,2.1,0.55c0.66,0.66,0.85,1.36,0.55,2.1c-0.3,0.88-0.59,1.47-0.88,1.77
		c0,0.59-0.08,1.03-0.22,1.33c-0.74,1.92-1.66,3.72-2.76,5.41c-1.1,1.7-2.1,3.42-2.98,5.19c-1.03,1.92-1.92,3.83-2.65,5.74
		c-0.74,1.92-1.47,3.9-2.21,5.96c-0.3,0.88-0.59,1.81-0.88,2.76c-0.3,0.96-0.52,1.88-0.66,2.76c-0.15,1.92,0.4,3.06,1.66,3.42
		c1.25,0.37,2.69,0.41,4.31,0.11c2.06-0.44,3.98-1.18,5.74-2.21c1.77-1.03,3.46-2.06,5.08-3.09c3.53-2.21,6.96-4.56,10.27-7.07
		c3.31-2.5,6.59-5.08,9.83-7.73c2.94-2.5,5.82-5.15,8.62-7.95c2.8-2.8,5.89-5.15,9.28-7.07L1875.14,254.04z M1815.71,260.66
		c1.62-1.03,3.35-2.06,5.19-3.09c1.84-1.03,3.72-1.99,5.63-2.87c-0.44-1.47-0.99-2.94-1.66-4.42c-0.66-1.47-1.44-2.65-2.32-3.54
		c-0.3,0-0.52,0.08-0.66,0.22c-0.3,0.3-0.55,0.48-0.77,0.55c-0.22,0.08-0.48,0.19-0.77,0.33c-0.88,0.59-1.73,1.25-2.54,1.99
		c-0.81,0.74-1.58,1.47-2.32,2.21c-3.24,3.24-6.11,6.92-8.62,11.05c-0.59,0.88-1.21,1.84-1.88,2.87c-0.66,1.03-1.21,2.14-1.66,3.31
		c0.74-0.74,1.47-1.44,2.21-2.1c0.74-0.66,1.33-1.14,1.77-1.44c2.65-1.91,5.23-3.61,7.73-5.08H1815.71z"/>
</g>
</svg>
